<mxfile host="app.diagrams.net" modified="2021-12-21T17:05:36.925Z" agent="5.0 (Windows NT 10.0; Win64; x64) AppleWebKit/537.36 (KHTML, like Gecko) Chrome/96.0.4664.110 Safari/537.36" etag="GTa9hwVLIdci4BfL822o" version="16.0.0" type="github">
  <diagram id="92dvMRmBPhCOI7NKLPdF" name="Page-1">
    <mxGraphModel dx="1025" dy="1783" grid="1" gridSize="10" guides="1" tooltips="1" connect="1" arrows="1" fold="1" page="1" pageScale="1" pageWidth="827" pageHeight="1169" math="0" shadow="0">
      <root>
        <mxCell id="0" />
        <mxCell id="1" parent="0" />
        <mxCell id="9iZxOrkho-nof8RHlY-g-1" value="main.tf" style="whiteSpace=wrap;html=1;shape=mxgraph.basic.document" vertex="1" parent="1">
          <mxGeometry x="383" y="-1150" width="70" height="80" as="geometry" />
        </mxCell>
        <mxCell id="9iZxOrkho-nof8RHlY-g-2" value="&lt;font style=&quot;font-size: 9px&quot;&gt;variables.tf&lt;/font&gt;" style="whiteSpace=wrap;html=1;shape=mxgraph.basic.document" vertex="1" parent="1">
          <mxGeometry x="383" y="-1050" width="70" height="80" as="geometry" />
        </mxCell>
        <mxCell id="9iZxOrkho-nof8RHlY-g-3" value="dev.tfvars" style="whiteSpace=wrap;html=1;shape=mxgraph.basic.document" vertex="1" parent="1">
          <mxGeometry x="165" y="-930" width="70" height="80" as="geometry" />
        </mxCell>
        <mxCell id="9iZxOrkho-nof8RHlY-g-4" value="prod.tfvars" style="whiteSpace=wrap;html=1;shape=mxgraph.basic.document" vertex="1" parent="1">
          <mxGeometry x="610" y="-930" width="70" height="80" as="geometry" />
        </mxCell>
        <mxCell id="9iZxOrkho-nof8RHlY-g-5" value="" style="endArrow=classic;html=1;rounded=0;fontSize=9;exitX=0.5;exitY=1;exitDx=0;exitDy=0;exitPerimeter=0;entryX=0.5;entryY=0;entryDx=0;entryDy=0;entryPerimeter=0;" edge="1" parent="1" source="9iZxOrkho-nof8RHlY-g-2" target="9iZxOrkho-nof8RHlY-g-3">
          <mxGeometry width="50" height="50" relative="1" as="geometry">
            <mxPoint x="364" y="-780" as="sourcePoint" />
            <mxPoint x="414" y="-830" as="targetPoint" />
            <Array as="points">
              <mxPoint x="418" y="-950" />
              <mxPoint x="200" y="-950" />
            </Array>
          </mxGeometry>
        </mxCell>
        <mxCell id="9iZxOrkho-nof8RHlY-g-6" value="" style="endArrow=classic;html=1;rounded=0;fontSize=9;exitX=0.5;exitY=1;exitDx=0;exitDy=0;exitPerimeter=0;" edge="1" parent="1" source="9iZxOrkho-nof8RHlY-g-1" target="9iZxOrkho-nof8RHlY-g-2">
          <mxGeometry width="50" height="50" relative="1" as="geometry">
            <mxPoint x="154" y="-870" as="sourcePoint" />
            <mxPoint x="204" y="-920" as="targetPoint" />
          </mxGeometry>
        </mxCell>
        <mxCell id="9iZxOrkho-nof8RHlY-g-7" value="" style="endArrow=classic;html=1;rounded=0;fontSize=9;exitX=0.5;exitY=1;exitDx=0;exitDy=0;exitPerimeter=0;entryX=0.5;entryY=0;entryDx=0;entryDy=0;entryPerimeter=0;" edge="1" parent="1" source="9iZxOrkho-nof8RHlY-g-2" target="9iZxOrkho-nof8RHlY-g-4">
          <mxGeometry width="50" height="50" relative="1" as="geometry">
            <mxPoint x="564" y="-960" as="sourcePoint" />
            <mxPoint x="614" y="-1010" as="targetPoint" />
            <Array as="points">
              <mxPoint x="418" y="-950" />
              <mxPoint x="645" y="-950" />
            </Array>
          </mxGeometry>
        </mxCell>
        <mxCell id="9iZxOrkho-nof8RHlY-g-13" value="AWS Cloud" style="points=[[0,0],[0.25,0],[0.5,0],[0.75,0],[1,0],[1,0.25],[1,0.5],[1,0.75],[1,1],[0.75,1],[0.5,1],[0.25,1],[0,1],[0,0.75],[0,0.5],[0,0.25]];outlineConnect=0;gradientColor=none;html=1;whiteSpace=wrap;fontSize=12;fontStyle=0;container=1;pointerEvents=0;collapsible=0;recursiveResize=0;shape=mxgraph.aws4.group;grIcon=mxgraph.aws4.group_aws_cloud_alt;strokeColor=#232F3E;fillColor=none;verticalAlign=top;align=left;spacingLeft=30;fontColor=#232F3E;dashed=0;" vertex="1" parent="1">
          <mxGeometry x="10" y="-840" width="370" height="380" as="geometry" />
        </mxCell>
        <mxCell id="9iZxOrkho-nof8RHlY-g-8" value="Security group" style="fillColor=none;strokeColor=#DD3522;verticalAlign=top;fontStyle=0;fontColor=#DD3522;fontSize=9;" vertex="1" parent="9iZxOrkho-nof8RHlY-g-13">
          <mxGeometry x="80" y="30" width="210" height="160" as="geometry" />
        </mxCell>
        <mxCell id="9iZxOrkho-nof8RHlY-g-10" value="EC2 instance contents" style="points=[[0,0],[0.25,0],[0.5,0],[0.75,0],[1,0],[1,0.25],[1,0.5],[1,0.75],[1,1],[0.75,1],[0.5,1],[0.25,1],[0,1],[0,0.75],[0,0.5],[0,0.25]];outlineConnect=0;gradientColor=none;html=1;whiteSpace=wrap;fontSize=12;fontStyle=0;container=1;pointerEvents=0;collapsible=0;recursiveResize=0;shape=mxgraph.aws4.group;grIcon=mxgraph.aws4.group_ec2_instance_contents;strokeColor=#D86613;fillColor=none;verticalAlign=top;align=left;spacingLeft=30;fontColor=#D86613;dashed=0;" vertex="1" parent="9iZxOrkho-nof8RHlY-g-13">
          <mxGeometry x="110" y="70" width="160" height="110" as="geometry" />
        </mxCell>
        <mxCell id="9iZxOrkho-nof8RHlY-g-20" value="AMI" style="sketch=0;outlineConnect=0;fontColor=#232F3E;gradientColor=none;fillColor=#D45B07;strokeColor=none;dashed=0;verticalLabelPosition=bottom;verticalAlign=top;align=center;html=1;fontSize=12;fontStyle=0;aspect=fixed;pointerEvents=1;shape=mxgraph.aws4.ami;" vertex="1" parent="9iZxOrkho-nof8RHlY-g-13">
          <mxGeometry x="170" y="110" width="48" height="48" as="geometry" />
        </mxCell>
        <mxCell id="9iZxOrkho-nof8RHlY-g-22" value="KMS" style="sketch=0;points=[[0,0,0],[0.25,0,0],[0.5,0,0],[0.75,0,0],[1,0,0],[0,1,0],[0.25,1,0],[0.5,1,0],[0.75,1,0],[1,1,0],[0,0.25,0],[0,0.5,0],[0,0.75,0],[1,0.25,0],[1,0.5,0],[1,0.75,0]];outlineConnect=0;fontColor=#232F3E;gradientColor=#F54749;gradientDirection=north;fillColor=#C7131F;strokeColor=#ffffff;dashed=0;verticalLabelPosition=bottom;verticalAlign=top;align=center;html=1;fontSize=12;fontStyle=0;aspect=fixed;shape=mxgraph.aws4.resourceIcon;resIcon=mxgraph.aws4.key_management_service;" vertex="1" parent="9iZxOrkho-nof8RHlY-g-13">
          <mxGeometry x="110" y="220" width="59" height="59" as="geometry" />
        </mxCell>
        <mxCell id="9iZxOrkho-nof8RHlY-g-23" style="edgeStyle=orthogonalEdgeStyle;rounded=0;orthogonalLoop=1;jettySize=auto;html=1;exitX=1;exitY=0.5;exitDx=0;exitDy=0;exitPerimeter=0;entryX=0;entryY=0.5;entryDx=0;entryDy=0;entryPerimeter=0;fontSize=9;" edge="1" parent="9iZxOrkho-nof8RHlY-g-13" source="9iZxOrkho-nof8RHlY-g-18" target="9iZxOrkho-nof8RHlY-g-22">
          <mxGeometry relative="1" as="geometry" />
        </mxCell>
        <mxCell id="9iZxOrkho-nof8RHlY-g-18" value="Bucket S3" style="sketch=0;points=[[0,0,0],[0.25,0,0],[0.5,0,0],[0.75,0,0],[1,0,0],[0,1,0],[0.25,1,0],[0.5,1,0],[0.75,1,0],[1,1,0],[0,0.25,0],[0,0.5,0],[0,0.75,0],[1,0.25,0],[1,0.5,0],[1,0.75,0]];outlineConnect=0;fontColor=#232F3E;gradientColor=#60A337;gradientDirection=north;fillColor=#277116;strokeColor=#ffffff;dashed=0;verticalLabelPosition=bottom;verticalAlign=top;align=center;html=1;fontSize=12;fontStyle=0;aspect=fixed;shape=mxgraph.aws4.resourceIcon;resIcon=mxgraph.aws4.s3;" vertex="1" parent="9iZxOrkho-nof8RHlY-g-13">
          <mxGeometry x="20" y="220" width="60" height="60" as="geometry" />
        </mxCell>
        <mxCell id="9iZxOrkho-nof8RHlY-g-14" value="AWS Cloud" style="points=[[0,0],[0.25,0],[0.5,0],[0.75,0],[1,0],[1,0.25],[1,0.5],[1,0.75],[1,1],[0.75,1],[0.5,1],[0.25,1],[0,1],[0,0.75],[0,0.5],[0,0.25]];outlineConnect=0;gradientColor=none;html=1;whiteSpace=wrap;fontSize=12;fontStyle=0;container=1;pointerEvents=0;collapsible=0;recursiveResize=0;shape=mxgraph.aws4.group;grIcon=mxgraph.aws4.group_aws_cloud_alt;strokeColor=#232F3E;fillColor=none;verticalAlign=top;align=left;spacingLeft=30;fontColor=#232F3E;dashed=0;" vertex="1" parent="1">
          <mxGeometry x="457" y="-840" width="370" height="380" as="geometry" />
        </mxCell>
        <mxCell id="9iZxOrkho-nof8RHlY-g-9" value="Security group" style="fillColor=none;strokeColor=#DD3522;verticalAlign=top;fontStyle=0;fontColor=#DD3522;fontSize=9;" vertex="1" parent="9iZxOrkho-nof8RHlY-g-14">
          <mxGeometry x="82" y="40" width="206" height="160" as="geometry" />
        </mxCell>
        <mxCell id="9iZxOrkho-nof8RHlY-g-11" value="EC2 instance contents" style="points=[[0,0],[0.25,0],[0.5,0],[0.75,0],[1,0],[1,0.25],[1,0.5],[1,0.75],[1,1],[0.75,1],[0.5,1],[0.25,1],[0,1],[0,0.75],[0,0.5],[0,0.25]];outlineConnect=0;gradientColor=none;html=1;whiteSpace=wrap;fontSize=12;fontStyle=0;container=1;pointerEvents=0;collapsible=0;recursiveResize=0;shape=mxgraph.aws4.group;grIcon=mxgraph.aws4.group_ec2_instance_contents;strokeColor=#D86613;fillColor=none;verticalAlign=top;align=left;spacingLeft=30;fontColor=#D86613;dashed=0;" vertex="1" parent="9iZxOrkho-nof8RHlY-g-14">
          <mxGeometry x="95" y="80" width="180" height="110" as="geometry" />
        </mxCell>
        <mxCell id="9iZxOrkho-nof8RHlY-g-25" style="edgeStyle=orthogonalEdgeStyle;rounded=0;orthogonalLoop=1;jettySize=auto;html=1;exitX=1;exitY=0.5;exitDx=0;exitDy=0;exitPerimeter=0;entryX=0;entryY=0.5;entryDx=0;entryDy=0;entryPerimeter=0;fontSize=9;" edge="1" parent="9iZxOrkho-nof8RHlY-g-14" source="9iZxOrkho-nof8RHlY-g-19" target="9iZxOrkho-nof8RHlY-g-24">
          <mxGeometry relative="1" as="geometry" />
        </mxCell>
        <mxCell id="9iZxOrkho-nof8RHlY-g-19" value="Bucket S3" style="sketch=0;points=[[0,0,0],[0.25,0,0],[0.5,0,0],[0.75,0,0],[1,0,0],[0,1,0],[0.25,1,0],[0.5,1,0],[0.75,1,0],[1,1,0],[0,0.25,0],[0,0.5,0],[0,0.75,0],[1,0.25,0],[1,0.5,0],[1,0.75,0]];outlineConnect=0;fontColor=#232F3E;gradientColor=#60A337;gradientDirection=north;fillColor=#277116;strokeColor=#ffffff;dashed=0;verticalLabelPosition=bottom;verticalAlign=top;align=center;html=1;fontSize=12;fontStyle=0;aspect=fixed;shape=mxgraph.aws4.resourceIcon;resIcon=mxgraph.aws4.s3;" vertex="1" parent="9iZxOrkho-nof8RHlY-g-14">
          <mxGeometry x="53" y="226" width="60" height="60" as="geometry" />
        </mxCell>
        <mxCell id="9iZxOrkho-nof8RHlY-g-21" value="AMI" style="sketch=0;outlineConnect=0;fontColor=#232F3E;gradientColor=none;fillColor=#D45B07;strokeColor=none;dashed=0;verticalLabelPosition=bottom;verticalAlign=top;align=center;html=1;fontSize=12;fontStyle=0;aspect=fixed;pointerEvents=1;shape=mxgraph.aws4.ami;" vertex="1" parent="9iZxOrkho-nof8RHlY-g-14">
          <mxGeometry x="167" y="111" width="48" height="48" as="geometry" />
        </mxCell>
        <mxCell id="9iZxOrkho-nof8RHlY-g-24" value="KMS" style="sketch=0;points=[[0,0,0],[0.25,0,0],[0.5,0,0],[0.75,0,0],[1,0,0],[0,1,0],[0.25,1,0],[0.5,1,0],[0.75,1,0],[1,1,0],[0,0.25,0],[0,0.5,0],[0,0.75,0],[1,0.25,0],[1,0.5,0],[1,0.75,0]];outlineConnect=0;fontColor=#232F3E;gradientColor=#F54749;gradientDirection=north;fillColor=#C7131F;strokeColor=#ffffff;dashed=0;verticalLabelPosition=bottom;verticalAlign=top;align=center;html=1;fontSize=12;fontStyle=0;aspect=fixed;shape=mxgraph.aws4.resourceIcon;resIcon=mxgraph.aws4.key_management_service;" vertex="1" parent="9iZxOrkho-nof8RHlY-g-14">
          <mxGeometry x="143" y="226" width="59" height="59" as="geometry" />
        </mxCell>
      </root>
    </mxGraphModel>
  </diagram>
</mxfile>
